<svg width="12" height="13" viewBox="0 0 12 13" fill="none" xmlns="http://www.w3.org/2000/svg">
<path d="M1.00108 5.00409H8.59108L5.29108 1.71409C5.10278 1.52579 4.99699 1.27039 4.99699 1.00409C4.99699 0.73779 5.10278 0.482395 5.29108 0.294092C5.47938 0.105788 5.73478 0 6.00108 0C6.26738 0 6.52278 0.105788 6.71108 0.294092L11.7111 5.29409C11.8021 5.3892 11.8735 5.50134 11.9211 5.62409C12.0211 5.86755 12.0211 6.14063 11.9211 6.38409C11.8735 6.50684 11.8021 6.61899 11.7111 6.71409L6.71108 11.7141C6.61812 11.8078 6.50752 11.8822 6.38566 11.933C6.2638 11.9838 6.13309 12.0099 6.00108 12.0099C5.86907 12.0099 5.73836 11.9838 5.6165 11.933C5.49464 11.8822 5.38404 11.8078 5.29108 11.7141C5.19735 11.6211 5.12296 11.5105 5.07219 11.3887C5.02142 11.2668 4.99528 11.1361 4.99528 11.0041C4.99528 10.8721 5.02142 10.7414 5.07219 10.6195C5.12296 10.4977 5.19735 10.3871 5.29108 10.2941L8.59108 7.00409H1.00108C0.735865 7.00409 0.48151 6.89873 0.293974 6.7112C0.106438 6.52366 0.00108147 6.26931 0.00108147 6.00409C0.00108147 5.73888 0.106438 5.48452 0.293974 5.29699C0.48151 5.10945 0.735865 5.00409 1.00108 5.00409Z" fill="white"/>
</svg>
