<svg width="20" height="20" viewBox="0 0 20 20" fill="none" xmlns="http://www.w3.org/2000/svg">
<path d="M9.68752 0C15.0379 0 19.375 4.33709 19.375 9.6875C19.375 15.0379 15.0379 19.375 9.68752 19.375C7.97549 19.378 6.29358 18.9249 4.8147 18.0623L0.00388997 19.375L1.31364 14.5622C0.450443 13.0829 -0.00298533 11.4003 1.47915e-05 9.6875C1.47915e-05 4.33709 4.33711 0 9.68752 0ZM6.38602 5.13438L6.19226 5.14213C6.067 5.15076 5.9446 5.18366 5.83189 5.239C5.72685 5.29859 5.63093 5.37298 5.54708 5.45988C5.43083 5.56934 5.36495 5.66428 5.29423 5.75631C4.93591 6.22219 4.74299 6.79415 4.74592 7.38188C4.74786 7.85656 4.87186 8.31866 5.06561 8.75072C5.46183 9.62453 6.1138 10.5497 6.97405 11.407C7.18136 11.6134 7.3848 11.8207 7.60373 12.0135C8.67268 12.9545 9.94644 13.6332 11.3237 13.9955L11.874 14.0798C12.0532 14.0895 12.2324 14.0759 12.4126 14.0672C12.6947 14.0523 12.9701 13.976 13.2196 13.8434C13.3463 13.7779 13.4701 13.7068 13.5906 13.6303C13.5906 13.6303 13.6316 13.6025 13.7117 13.5431C13.8425 13.4462 13.9229 13.3775 14.0314 13.2641C14.1128 13.1802 14.1806 13.0826 14.2348 12.9716C14.3104 12.8137 14.386 12.5124 14.417 12.2615C14.4402 12.0697 14.4334 11.965 14.4305 11.9001C14.4266 11.7965 14.3404 11.6889 14.2465 11.6434L13.6826 11.3906C13.6826 11.3906 12.8398 11.0234 12.3245 10.789C12.2705 10.7655 12.2127 10.752 12.154 10.7492C12.0877 10.7423 12.0207 10.7497 11.9575 10.7709C11.8943 10.7922 11.8364 10.8267 11.7878 10.8723C11.7829 10.8703 11.718 10.9256 11.0176 11.7742C10.9774 11.8282 10.922 11.869 10.8585 11.8915C10.7951 11.9139 10.7263 11.9169 10.6611 11.9001C10.598 11.8833 10.5361 11.8619 10.4761 11.8362C10.356 11.7858 10.3143 11.7664 10.232 11.7316C9.67577 11.4893 9.16094 11.1614 8.70617 10.7599C8.58411 10.6533 8.47077 10.5371 8.35452 10.4247C7.97342 10.0597 7.64127 9.6468 7.36639 9.19634L7.30923 9.10431C7.2688 9.04212 7.23565 8.97548 7.21042 8.90572C7.17361 8.76331 7.26952 8.649 7.26952 8.649C7.26952 8.649 7.50492 8.39131 7.61439 8.25181C7.72095 8.11619 7.81105 7.98444 7.86917 7.89047C7.98348 7.70641 8.01933 7.5175 7.95927 7.37122C7.68802 6.70859 7.40772 6.04952 7.11839 5.394C7.06123 5.26419 6.8917 5.17119 6.73767 5.15278C6.68536 5.14632 6.63305 5.14116 6.58073 5.13728C6.45066 5.12982 6.32023 5.13111 6.19033 5.14116L6.38602 5.13438Z" fill="#CFF70B"/>
</svg>
